<svg width="68" height="31" viewBox="0 0 68 31" fill="none" xmlns="http://www.w3.org/2000/svg">
<path d="M9.99878 0.342285V13.1046H4.68164V0.342285H0V30.1249H4.68164V17.3626H9.99878V30.1249H14.764V0.342285H9.99878Z" fill="#AF2026"/>
<path d="M31.9312 6.19555C31.5055 2.23296 29.051 0 24.8902 0C20.2941 0 17.7852 2.72076 17.7852 7.48791V22.9749C17.7852 27.7401 20.2941 30.4647 24.8902 30.4647C27.6518 30.4647 29.6613 29.4813 30.8234 27.6584C30.9361 27.4874 31.0352 27.3086 31.1324 27.1221C31.7018 25.9968 31.9972 24.6054 31.9972 22.9749V7.48791C31.9972 7.03899 31.9759 6.60755 31.9312 6.19555ZM27.3156 23.2761C27.3156 25.4022 26.3808 26.2106 24.8922 26.2106C23.4035 26.2106 22.4649 25.4041 22.4649 23.2761V7.19251C22.4649 5.06643 23.4035 4.25604 24.8922 4.25604C26.3808 4.25604 27.3156 5.06643 27.3156 7.19251V23.2761Z" fill="#AF2026"/>
<path d="M48.6019 20.4718C48.0675 19.7197 47.5603 19.0103 47.2707 18.301L47.2008 18.1319L47.0239 18.0581C46.6799 17.9181 46.4215 18.0911 45.6985 18.9306C45.339 19.3504 44.9484 19.8557 44.8454 20.0325C43.8581 21.7447 43.9436 23.1226 44.0311 24.5782C44.0777 25.3069 44.1205 26.061 44.033 26.8986C43.8989 28.1754 43.7143 29.1121 43.1682 30.1324L43.0322 30.385C46.8063 29.9108 48.8449 27.2717 48.8449 22.9749V20.8157C48.7652 20.6991 48.6836 20.5864 48.6019 20.4718ZM47.3115 15.9456C46.8782 17.2846 47.881 18.9617 48.8429 20.4037V13.7942C48.1666 14.2937 47.6264 14.9758 47.3115 15.9456ZM48.7866 6.28106C48.5786 6.64642 48.3551 6.99234 48.1375 7.32466C47.4281 8.40714 46.7596 9.42742 46.746 10.9802C46.7402 11.4622 46.849 11.8858 46.9539 12.2978C47.055 12.6962 47.1483 13.0713 47.123 13.4619L47.0803 14.1771L47.7566 13.8661C48.1336 13.6912 48.4951 13.5066 48.8449 13.3317V7.48597C48.8449 7.06814 48.8254 6.66585 48.7885 6.28106H48.7866ZM46.7557 12.7662C46.6275 11.7245 46.5031 10.7353 46.7091 9.84914C45.0397 10.7276 44.7871 11.7459 44.7871 11.7459C44.6374 12.6982 44.4275 13.9866 44 15.0458C43.621 15.9864 43.1604 16.7579 42.7193 17.5061C41.8331 19.0006 40.9935 20.4096 40.9741 22.8058C40.9722 23.0506 41.0577 23.8183 41.1646 24.4752C41.287 25.2408 41.423 25.6917 41.596 25.9424C41.7437 26.1581 42.0449 26.2009 42.2607 26.0551C42.6474 25.785 43.4092 25.2642 43.8523 25.0154C43.8406 24.8852 43.8309 24.7531 43.8192 24.6248C43.724 23.5501 43.6249 22.4385 43.9125 21.494C44.1846 20.602 44.6724 19.9257 45.1893 19.2124C45.8851 18.2524 46.5983 17.2632 46.849 15.6852C46.9987 14.7329 46.8762 13.732 46.7557 12.7681V12.7662ZM43.8542 0.22349C43.4597 1.42062 43.4908 2.76545 43.5277 4.16859C43.5686 5.78549 43.6094 7.45487 42.9661 8.95906C42.4433 10.1834 41.4055 11.1842 40.3095 12.2415C38.9957 13.5086 37.6373 14.8203 37.1884 16.5908C36.926 17.6072 37.303 18.9248 37.7034 20.3202C38.026 21.4493 38.3583 22.6153 38.3078 23.5462C38.2398 24.7783 37.6043 26.3797 37.0834 27.3708C36.9668 27.5943 36.7531 27.8431 36.5471 28.0821C36.4713 28.1695 36.3935 28.2589 36.3236 28.3483C37.1476 29.2909 38.2592 29.9322 39.6468 30.2432C39.6487 30.2432 39.6526 30.2432 39.6545 30.2451C39.9655 29.7223 40.2453 29.1568 40.4455 28.5874C41.0829 26.7664 40.9605 25.2933 40.84 23.8727C40.7506 22.8116 40.6651 21.8108 40.9022 20.705C41.1529 19.535 41.8584 18.4137 42.5444 17.3293C43.1799 16.3226 43.8348 15.2809 44.1555 14.1713C44.2351 13.8875 44.3848 13.2579 44.4956 12.5271C44.4975 12.4105 44.5169 12.2298 44.5636 11.9597C44.8007 10.5507 46.439 9.79472 46.7538 9.66452C46.7752 9.58289 46.8004 9.5071 46.8296 9.42742C47.0511 8.83663 47.4728 8.20502 47.879 7.60063C48.1569 7.18668 48.4465 6.75719 48.6622 6.34908C48.6972 6.28106 48.7322 6.21304 48.7691 6.14113C48.4115 2.93453 46.7188 0.870637 43.8523 0.219599L43.8542 0.22349ZM43.8873 25.4527C42.6474 26.267 41.2695 27.3553 41.0266 28.5835C40.8983 29.2404 40.8692 29.8681 40.9333 30.4356H40.9411C41.1995 30.455 41.4639 30.4647 41.7379 30.4647C42.041 30.4647 42.3384 30.453 42.6221 30.4258C43.2634 29.5066 43.691 28.0374 43.794 27.5865C43.9436 26.9083 43.9359 26.1815 43.8873 25.4507V25.4527ZM43.6171 0.174905C43.0361 0.0583008 42.4083 0 41.7379 0C38.3544 0 36.1001 1.47698 35.1498 4.16081C35.2119 5.5484 36.0437 6.99623 36.7958 8.30803C37.1942 9.00571 37.5732 9.66257 37.8083 10.2553C38.0104 10.7645 38.0862 11.1687 38.1756 11.6351C38.2164 11.8469 38.2592 12.0666 38.3155 12.2998C38.3155 12.3114 38.3156 12.3192 38.3136 12.3289C38.2845 12.6671 38.4905 12.8303 38.6945 12.9119C38.8033 12.9586 38.9102 12.98 38.9782 12.9936L39.1823 13.0344L39.3319 12.9119C41.905 10.7878 43.1293 8.39742 43.2984 5.15972C43.3256 4.61751 43.2868 4.02866 43.2498 3.45536C43.1935 2.56723 43.1332 1.648 43.3198 0.895904C43.3859 0.631602 43.4908 0.400337 43.6152 0.172959L43.6171 0.174905ZM36.4849 8.42463C36.0942 7.77359 35.725 7.15365 35.4782 6.56868L34.9457 4.82351C34.7378 5.62225 34.6328 6.51038 34.6328 7.48791V16.8337C36.1215 16.2857 37.4196 15.5005 37.9774 13.3239C38.4088 11.6448 37.3866 9.93465 36.4829 8.42463H36.4849ZM37.2914 19.7002C37.1106 18.9812 36.9241 18.2388 36.79 17.51L36.7783 17.4692C36.7725 17.4439 36.7667 17.4206 36.7628 17.3954C36.7278 17.2457 36.6403 16.8454 36.1312 16.7463C36.0223 16.7249 35.8669 16.6938 34.6347 17.1466V22.9729C34.6347 25.0757 35.1225 26.78 36.067 28.0277C38.7781 25.5537 38.024 22.5803 37.2933 19.6983L37.2914 19.7002Z" fill="#AF2026"/>
<path d="M67.3522 0.342285H62.6725L56.5488 13.3125C56.5488 13.3125 56.5488 13.3145 56.5469 13.3184V0.342285H51.8652V30.1249H56.5469V20.9773L57.9928 18.2526L62.5461 30.1249H67.3522L60.8437 13.6157L67.3522 0.342285Z" fill="#AF2026"/>
</svg>
