<svg width="157" height="27" viewBox="0 0 157 27" fill="none" xmlns="http://www.w3.org/2000/svg">
<path fill-rule="evenodd" clip-rule="evenodd" d="M-0.0732422 30.955V-4.49805H158.505V30.955H-0.0732422ZM75.5048 28.955H156.505V-2.49805H75.5048V28.955ZM27.725 19.348C33.296 19.348 35.638 16.945 35.638 13.192C35.638 9.37795 33 7.11095 27.725 7.11095C22.531 7.11095 19.797 9.57295 19.797 13.192C19.797 17.276 22.665 19.348 27.725 19.348ZM8.356 7.38095V19.168H19.6V16.029H12.424V7.38095H8.356ZM48.222 19.168L48.117 18.026C46.7561 18.9972 45.0997 19.4646 43.432 19.348C40.925 19.348 38.837 18.597 37.666 17.081C36.8936 15.9742 36.5036 14.6456 36.555 13.297C36.5111 11.9767 36.9146 10.6803 37.7 9.61795C38.885 8.14695 41.033 7.17095 44.231 7.17095C47.91 7.17095 50.072 8.29695 51.002 10.189C51.2016 10.6346 51.3189 11.1126 51.348 11.6H47.456C47.3579 11.3038 47.1754 11.0428 46.931 10.849C46.1557 10.335 45.2299 10.0973 44.303 10.174C43.7593 10.1081 43.2077 10.1583 42.6849 10.3214C42.1621 10.4845 41.6798 10.7567 41.27 11.12C40.8046 11.757 40.5861 12.5412 40.655 13.327C40.601 14.0767 40.8019 14.8227 41.225 15.444C41.6385 15.8293 42.1301 16.1211 42.6663 16.2999C43.2026 16.4786 43.7709 16.5401 44.333 16.48C45.4493 16.5708 46.5576 16.2265 47.426 15.519C47.6125 15.2858 47.7411 15.0116 47.801 14.719H43.613V12.186H51.45V19.168H48.222ZM60.519 19.348C66.089 19.348 68.432 16.945 68.432 13.192C68.432 9.37795 65.7899 7.11095 60.519 7.11095C55.325 7.11095 52.591 9.57295 52.591 13.192C52.591 17.276 55.459 19.348 60.519 19.348Z" fill="#394149"/>
</svg>
